# xmcd
#
# Track frame offsets: 
#        150
#        13362
#        25992
#        38965
#        51575
#        68075
#        81245
#        94887
#        109352
#        124104
#        138337
#        151727
#        165612
#        179772
#        192557
#        205722
#        219427
#        233562
#        244842
#        258700
#        272435
#        283272
#        296135
#        307070
#        320420
#        334685
#
# Disc length: 4647 seconds
#
# Revision: 0
# Processed by: cddbd v1.5.1PL0 Copyright (c) Steve Scherf et al.
# Submitted via: ExactAudioCopy v0.95a3
#
DISCID=9612251a
DTITLE=Various Artist - Good Mornin' Blues-The Legendary Bluesmen
DYEAR=2004
DGENRE=Blues
TTITLE0=Leadbelly - Good Mornin' Blues
TTITLE1=Mississippi John Hurt - Candy Man Blues
TTITLE2=Charley Patton - Stone Pony Blues
TTITLE3=Big Bill Broonzy - I Can't Be Satisfied
TTITLE4=Tommy Johnson - Canned Heat Blues
TTITLE5=Blind Lemon Jefferson - Matchbox Blues
TTITLE6=Rooswelt Sykes - "44" Blues
TTITLE7=Sleeoy John Estes - Floating Bridge
TTITLE8=Lonnie Johnson - No More Troubles Now
TTITLE9=Kokomo Arnold - Milk Cow Blues
TTITLE10=Leroy Carr and Scapper Blackwell - When The Sun Goes Down
TTITLE11=Blind Willie McTell - Georgia Rag
TTITLE12=Son House - My Black Mama
TTITLE13=Big Joe Williams - (Baby) Please Don't Go
TTITLE14=Arthur "Big Boy" Crudup - That's All Right (Mama)
TTITLE15=Bukka White - Shake 'Em On Down
TTITLE16=Blind Boy Fuller - Truckin' My Blues Away
TTITLE17=Robert Johnson - Crossroad Blues
TTITLE18=Sonny Boy Williamson - Good Morning, School Girl
TTITLE19=T-Bone Walker - Call It Stormy Monday
TTITLE20=Sonny Terry and Brownie McGhee - Stranger Blues
TTITLE21=Big Joe Turner and Pete Johnson - Roll 'Em, Pete
TTITLE22=Lightnin' Hopkins - Short Haired Woman
TTITLE23=Jimmy Witherspoon - 'Ain't Nobody's Business
TTITLE24=John Lee Hooker - Boogie Chillen
TTITLE25=Muddy waters - Rollin' Stone
EXTD=
EXTT0=
EXTT1=
EXTT2=
EXTT3=
EXTT4=
EXTT5=
EXTT6=
EXTT7=
EXTT8=
EXTT9=
EXTT10=
EXTT11=
EXTT12=
EXTT13=
EXTT14=
EXTT15=
EXTT16=
EXTT17=
EXTT18=
EXTT19=
EXTT20=
EXTT21=
EXTT22=
EXTT23=
EXTT24=
EXTT25=
PLAYORDER=
